HIERARCHY
ROOT joint_Root
{
	OFFSET 0.0 0.0 0.0
	CHANNELS 6 Xposition Yposition Zposition Zrotation Xrotation Yrotation 
	JOINT Hips
	{
		OFFSET -0.726466 93.3139 -2.00062
		CHANNELS 6 Xposition Yposition Zposition Zrotation Xrotation Yrotation 
		JOINT Spine
		{
			OFFSET 15.7357 0.0 0.0
			CHANNELS 6 Xposition Yposition Zposition Zrotation Xrotation Yrotation 
			JOINT Chest
			{
				OFFSET 8.98455 -0.406207 0.0
				CHANNELS 6 Xposition Yposition Zposition Zrotation Xrotation Yrotation 
				JOINT Neck
				{
					OFFSET 16.3773 0.0 0.0
					CHANNELS 6 Xposition Yposition Zposition Zrotation Xrotation Yrotation 
					JOINT Head
					{
						OFFSET 6.45672 0.0 0.0
						CHANNELS 6 Xposition Yposition Zposition Zrotation Xrotation Yrotation 
						End Site
						{
							OFFSET 0.0 0.0 0.0
						}
					}
				}
				JOINT Shoulder_L
				{
					OFFSET 12.9942 -0.242716 4.98039
					CHANNELS 6 Xposition Yposition Zposition Zrotation Xrotation Yrotation 
					JOINT UpperArm_L
					{
						OFFSET 5.34809 0.0 0.0
						CHANNELS 6 Xposition Yposition Zposition Zrotation Xrotation Yrotation 
						JOINT LowerArm_L
						{
							OFFSET 24.3286 1.87007e-05 0.0
							CHANNELS 6 Xposition Yposition Zposition Zrotation Xrotation Yrotation 
							JOINT Hand_L
							{
								OFFSET 22.2916 0.0 0.0
								CHANNELS 6 Xposition Yposition Zposition Zrotation Xrotation Yrotation 
								End Site
								{
									OFFSET 0.0 0.0 0.0
								}
							}
						}
					}
				}
				JOINT Shoulder_R
				{
					OFFSET 12.9945 -0.242716 -4.98039
					CHANNELS 6 Xposition Yposition Zposition Zrotation Xrotation Yrotation 
					JOINT UpperArm_R
					{
						OFFSET -5.34813 0.0 0.0
						CHANNELS 6 Xposition Yposition Zposition Zrotation Xrotation Yrotation 
						JOINT LowerArm_R
						{
							OFFSET -24.3289 0.000322201 0.0
							CHANNELS 6 Xposition Yposition Zposition Zrotation Xrotation Yrotation 
							JOINT Hand_R
							{
								OFFSET -22.2915 -0.000108084 0.0
								CHANNELS 6 Xposition Yposition Zposition Zrotation Xrotation Yrotation 
								End Site
								{
									OFFSET 0.0 0.0 0.0
								}
							}
						}
					}
				}
			}
		}
		JOINT UpperLeg_L
		{
			OFFSET -2.19248 -6.46944 0.0
			CHANNELS 6 Xposition Yposition Zposition Zrotation Xrotation Yrotation 
			JOINT LowerLeg_L
			{
				OFFSET 39.0811 0.0 -1.23785e-05
				CHANNELS 6 Xposition Yposition Zposition Zrotation Xrotation Yrotation 
				JOINT Foot_L
				{
					OFFSET 40.9854 0.0 -1.26872e-05
					CHANNELS 6 Xposition Yposition Zposition Zrotation Xrotation Yrotation 
					JOINT Toes_L
					{
						OFFSET 11.7543 0.0 0.0
						CHANNELS 6 Xposition Yposition Zposition Zrotation Xrotation Yrotation 
						End Site
						{
							OFFSET 0.0 0.0 0.0
						}
					}
				}
			}
		}
		JOINT UpperLeg_R
		{
			OFFSET -2.19251 6.46944 0.0
			CHANNELS 6 Xposition Yposition Zposition Zrotation Xrotation Yrotation 
			JOINT LowerLeg_R
			{
				OFFSET -39.0811 -0.00228153 -0.0401928
				CHANNELS 6 Xposition Yposition Zposition Zrotation Xrotation Yrotation 
				JOINT Foot_R
				{
					OFFSET -40.9854 0.0 0.0
					CHANNELS 6 Xposition Yposition Zposition Zrotation Xrotation Yrotation 
					JOINT Toes_R
					{
						OFFSET -11.7543 0.0 0.0
						CHANNELS 6 Xposition Yposition Zposition Zrotation Xrotation Yrotation 
						End Site
						{
							OFFSET 0.0 0.0 0.0
						}
					}
				}
			}
		}
	}
}
MOTION
Frames:	4
Frame Time:	0.0333333
0.000000 0.000000 0.000000 0.000000 0.000000 -0.000000 -0.598291 82.718800 448.525000 -89.883400 7.146810 170.022000 15.735700 0.000005 -0.000001 103.751000 79.295600 -103.540000 8.984550 -0.406207 -0.000000 13.056300 5.047020 -0.156252 16.377300 -0.000001 -0.000001 2.530670 -2.087280 0.859094 6.456720 -0.000001 -0.000000 -6.733370 -3.966540 -4.926330 12.994200 -0.242716 4.980390 -88.257200 -4.051010 -66.698900 5.348090 -0.000007 -0.000001 -63.925300 26.621000 13.632100 24.328600 0.000019 0.000005 -2.911580 -2.995260 -44.225200 22.291600 -0.000001 0.000005 -6.698950 5.597450 -11.190300 12.994500 -0.242716 -4.980390 90.001900 -0.004902 -69.227400 -5.348130 -0.000001 -0.000004 -39.147400 14.392300 -43.320100 -24.328900 0.000322 -0.000009 -9.550500 -2.197160 -77.163800 -22.291500 -0.000108 -0.000004 7.860790 5.560720 -9.223070 -2.192480 -6.469440 -0.000000 174.505000 -10.453400 -51.032700 39.081100 -0.000007 -0.000012 -0.164479 -0.041920 104.302000 40.985400 -0.000006 -0.000013 5.952460 -6.311700 -58.480500 11.754300 -0.000000 0.000003 -0.008659 -0.093339 -20.378300 -2.192510 6.469440 -0.000001 178.445000 10.540800 165.176000 -39.081100 -0.002282 -0.040193 0.083862 -0.065555 50.883300 -40.985400 0.000008 0.000006 4.250100 -0.453498 -87.847200 -11.754300 -0.000006 -0.000006 -0.473071 -0.612517 -25.331600
0.000000 0.000000 0.000000 0.000000 0.000000 -0.000000 -1.285570 85.874900 441.707000 -91.629300 7.868960 169.107000 15.735700 0.000005 -0.000001 106.052000 79.778000 -106.802000 8.984550 -0.406207 -0.000000 11.959400 5.576710 -2.086700 16.377300 -0.000001 -0.000001 3.381470 -1.975740 1.021020 6.456720 -0.000001 -0.000000 -6.052220 -4.701040 -4.348140 12.994200 -0.242716 4.980390 -87.747400 -5.070160 -66.007400 5.348090 -0.000007 -0.000001 -65.072100 24.860400 16.813800 24.328600 0.000019 0.000005 -2.753710 -2.693720 -45.663300 22.291600 -0.000001 0.000005 -7.227290 5.595130 -11.058700 12.994500 -0.242716 -4.980390 90.339900 -0.883760 -68.959600 -5.348130 -0.000001 -0.000004 -38.738400 14.165500 -44.290400 -24.328900 0.000322 -0.000009 -9.257450 -1.737100 -79.461900 -22.291500 -0.000108 -0.000004 7.716940 5.556190 -9.000620 -2.192480 -6.469440 -0.000000 171.514000 -9.377710 -53.013900 39.081100 -0.000007 -0.000012 -0.109550 -0.004292 92.248800 40.985400 -0.000006 -0.000013 3.754070 -8.285010 -62.854600 11.754300 -0.000000 0.000003 -0.004770 -0.059233 -18.986700 -2.192510 6.469440 -0.000001 174.496000 11.119100 171.913000 -39.081100 -0.002282 -0.040193 0.022348 -0.021892 41.061700 -40.985400 0.000008 0.000006 4.107570 2.720720 -74.788200 -11.754300 -0.000006 -0.000006 -0.093427 -0.427949 -34.403200
0.000000 0.000000 0.000000 0.000000 0.000000 -0.000000 -1.835770 89.276100 434.937000 -92.313900 8.753510 167.784000 15.735700 0.000005 -0.000001 108.260000 80.280200 -109.698000 8.984550 -0.406207 -0.000000 10.816000 6.009150 -3.445320 16.377300 -0.000001 -0.000001 4.044730 -1.541020 1.163240 6.456720 -0.000001 -0.000000 -5.765720 -4.822300 -3.662550 12.994200 -0.242716 4.980390 -87.271500 -5.992660 -65.464200 5.348090 -0.000007 -0.000001 -66.892100 23.336400 18.967000 24.328600 0.000019 0.000005 -3.139990 -2.901360 -47.301900 22.291600 -0.000001 0.000005 -6.820940 5.602040 -11.460700 12.994500 -0.242716 -4.980390 90.569300 -1.488120 -69.062000 -5.348130 -0.000001 -0.000004 -39.565700 15.536100 -44.035400 -24.328900 0.000322 -0.000009 -8.873530 -1.684390 -79.334100 -22.291500 -0.000108 -0.000004 7.005990 5.551700 -8.786330 -2.192480 -6.469440 -0.000000 170.275000 -9.088280 -52.220100 39.081100 -0.000007 -0.000012 -0.034902 0.009029 75.505500 40.985400 -0.000006 -0.000013 3.182970 -8.626830 -65.973500 11.754300 -0.000000 0.000003 -0.004407 -0.055617 -18.839400 -2.192510 6.469440 -0.000001 172.044000 12.057800 176.104000 -39.081100 -0.002282 -0.040193 0.039334 -0.055500 32.997300 -40.985400 0.000008 0.000006 4.157550 5.898030 -57.241400 -11.754300 -0.000006 -0.000006 -0.223574 -0.682898 -46.028300
0.000000 0.000000 0.000000 0.000000 0.000000 -0.000000 -2.201920 92.053100 428.185000 -91.538200 9.439170 166.872000 15.735700 0.000005 -0.000001 110.213000 80.525000 -111.914000 8.984550 -0.406207 -0.000000 10.163800 6.469870 -3.980140 16.377300 -0.000001 -0.000001 4.457390 -1.070670 1.439250 6.456720 -0.000001 -0.000000 -6.006230 -4.803540 -2.783020 12.994200 -0.242716 4.980390 -86.796300 -6.941390 -65.149100 5.348090 -0.000007 -0.000001 -68.860400 20.472600 19.821300 24.328600 0.000019 0.000005 -3.550720 -3.082070 -49.091000 22.291600 -0.000001 0.000005 -5.763440 5.605380 -11.669700 12.994500 -0.242716 -4.980390 90.701700 -1.888190 -69.609700 -5.348130 -0.000001 -0.000004 -41.354100 17.858900 -42.649600 -24.328900 0.000322 -0.000009 -7.672790 -1.717430 -77.453800 -22.291500 -0.000108 -0.000004 7.144680 5.546890 -8.561480 -2.192480 -6.469440 -0.000000 171.303000 -9.537760 -48.386600 39.081100 -0.000007 -0.000012 0.005603 -0.003787 55.915000 40.985400 -0.000006 -0.000013 1.852270 -5.081540 -68.251900 11.754300 -0.000000 0.000003 -0.004869 -0.060200 -19.026100 -2.192510 6.469440 -0.000001 170.641000 14.302100 179.179000 -39.081100 -0.002282 -0.040193 0.076616 -0.144075 26.967800 -40.985400 0.000008 0.000006 1.473940 10.107300 -39.949700 -11.754300 -0.000006 -0.000006 -0.195337 -0.637302 -43.853800
